<svg width="24" height="24" viewBox="0 0 24 24" fill="none" xmlns="http://www.w3.org/2000/svg">
<g id="detail_ic_audio">
<path id="Union" fill-rule="evenodd" clip-rule="evenodd" d="M12.0001 4C10.8746 4 9.11268 4.2494 7.49887 5.31566C5.84591 6.4078 4.44811 8.29304 4.01018 11.3586C3.95439 11.7491 4.13228 12.1191 4.43775 12.3272C4.43754 13.2901 4.63996 14.3977 5.05291 15.2236L5.09979 15.2002C4.72324 15.7015 4.50012 16.3247 4.50012 17C4.50012 18.6569 5.84327 20 7.50012 20H8.50012C9.05241 20 9.50012 19.5523 9.50012 19V15C9.50012 14.4477 9.05241 14 8.50012 14H7.50012C6.88096 14 6.3056 14.1876 5.82778 14.509C5.57797 13.8848 5.44639 13.0973 5.43793 12.3992C5.72588 12.2587 5.94135 11.9825 5.99008 11.6414C6.35214 9.10696 7.45435 7.7422 8.60138 6.98434C9.78758 6.2006 11.1257 6 12.0001 6L12.0001 4ZM12.0001 4C13.1257 4 14.8876 4.2494 16.5014 5.31566C18.1544 6.4078 19.5521 8.29304 19.9901 11.3586C20.0459 11.7491 19.868 12.1191 19.5625 12.3272C19.5627 13.2901 19.3603 14.3977 18.9473 15.2236L18.9005 15.2002C19.277 15.7015 19.5001 16.3247 19.5001 17C19.5001 18.6569 18.157 20 16.5001 20H15.5001C14.9479 20 14.5001 19.5523 14.5001 19V15C14.5001 14.4477 14.9479 14 15.5001 14H16.5001C17.1193 14 17.6947 14.1876 18.1725 14.509C18.4223 13.8848 18.5539 13.0973 18.5623 12.3992C18.2744 12.2587 18.0589 11.9825 18.0102 11.6414C17.6481 9.10696 16.5459 7.7422 15.3989 6.98434C14.2127 6.2006 12.8746 6 12.0001 6L12.0001 4Z" fill="#A5A5A5"/>
</g>
</svg>
