<svg width="24" height="24" viewBox="0 0 24 24" fill="none" xmlns="http://www.w3.org/2000/svg">
<g id="ic_star_line">
<path id="Vector" d="M11.2567 4.51869C11.5317 3.8271 12.4683 3.8271 12.7433 4.51869L14.3664 8.60058C14.4823 8.89213 14.7444 9.09134 15.0453 9.11658L19.2582 9.46986C19.9719 9.52972 20.2614 10.4615 19.7176 10.9488L16.5078 13.8248C16.2785 14.0302 16.1784 14.3525 16.2485 14.6597L17.2291 18.9599C17.3952 19.6885 16.6375 20.2644 16.0264 19.8739L12.4196 17.5695C12.162 17.4049 11.838 17.4049 11.5804 17.5695L7.97359 19.8739C7.36249 20.2644 6.60476 19.6885 6.77091 18.9599L7.75154 14.6597C7.82158 14.3525 7.72146 14.0302 7.4922 13.8248L4.28245 10.9488C3.73863 10.4615 4.02805 9.52972 4.74183 9.46986L8.95469 9.11658C9.2556 9.09134 9.51772 8.89213 9.63365 8.60058L11.2567 4.51869Z" stroke="black" stroke-width="1.5"/>
</g>
</svg>
