<svg width="367" height="334" viewBox="0 0 367 334" fill="none" xmlns="http://www.w3.org/2000/svg">
<g filter="url(#filter0_d_573_27907)">
<rect x="18" y="18" width="327" height="294" rx="16" fill="white" shape-rendering="crispEdges"/>
<path d="M65.878 57.224H67.942V59H61.35V57.224H63.686V50.712L63.75 49.672L61.798 51.448L60.534 50.008L63.99 47.032H65.878V57.224ZM81.3053 60.36H79.1933V45.64H81.3053V60.36ZM73.7533 52.52C71.5293 52.52 69.8813 51.224 69.8813 49.384C69.8813 47.528 71.5293 46.232 73.7533 46.232C75.9773 46.232 77.6093 47.528 77.6093 49.384C77.6093 51.224 75.9773 52.52 73.7533 52.52ZM73.7533 47.944C72.6653 47.944 71.9133 48.424 71.9133 49.384C71.9133 50.28 72.6653 50.792 73.7533 50.792C74.8413 50.792 75.5933 50.28 75.5933 49.384C75.5933 48.424 74.8413 47.944 73.7533 47.944ZM78.4893 54.424C77.2733 54.664 76.0893 54.808 74.8733 54.92V59.928H72.7613V55.048C71.4813 55.096 70.2973 55.112 69.2573 55.112L69.0173 53.384C71.5773 53.384 75.2413 53.352 78.3613 52.888L78.4893 54.424Z" fill="#242424"/>
<rect x="86" y="48" width="1" height="11" fill="#DFDFDF"/>
<path d="M99.9231 59H92.0511V57.976L96.0991 54.088C97.3311 52.776 98.2271 51.768 98.2271 50.392C98.1791 48.984 97.2831 48.328 96.0671 48.328C94.7231 48.328 93.7311 49.288 93.7311 50.632L92.2911 50.392C92.5951 48.232 94.1471 47.064 96.1471 47.064C98.1471 47.064 99.6991 48.28 99.6991 50.36C99.6991 52.104 98.5791 53.32 97.2511 54.648L93.9711 57.896C94.4191 57.768 94.8991 57.704 95.2991 57.704H99.9231V59ZM109.238 53.16C109.238 57.32 107.35 59.224 104.934 59.224C102.502 59.224 100.63 57.32 100.63 53.16C100.63 48.984 102.502 47.08 104.934 47.08C107.35 47.08 109.238 48.984 109.238 53.16ZM107.766 53.16C107.766 49.496 106.422 48.28 104.934 48.28C103.446 48.28 102.118 49.496 102.118 53.16C102.118 56.808 103.446 58.04 104.934 58.04C106.422 58.04 107.766 56.808 107.766 53.16ZM122.106 60.184H120.842V52.664H118.81V59.464H117.578V46.152H118.81V51.592H120.842V45.832H122.106V60.184ZM111.722 55.56C113.626 55.56 115.018 55.464 116.57 55.128L116.682 56.216C114.986 56.6 113.498 56.648 111.37 56.648H110.426V47.576H115.77V48.648H111.722V55.56ZM138.834 60.216H137.522V54.648H133.938C133.346 56.12 132.258 56.952 130.85 56.952C128.754 56.952 127.266 55 127.266 51.944C127.266 48.888 128.754 46.936 130.85 46.936C132.194 46.936 133.218 47.704 133.842 49.048H137.522V45.832H138.834V60.216ZM130.85 55.784C132.194 55.784 133.186 54.28 133.186 51.944C133.186 49.624 132.194 48.12 130.85 48.12C129.474 48.12 128.514 49.624 128.514 51.944C128.514 54.28 129.474 55.784 130.85 55.784ZM137.522 50.12H134.21C134.338 50.68 134.418 51.288 134.418 51.944C134.418 52.6 134.37 53.144 134.258 53.576H137.522V50.12ZM148.505 49.96V48.888H151.625V45.848H152.953V54.328H151.625V49.96H148.505ZM148.841 53.656C147.241 53.064 146.057 51.928 145.433 50.44C144.809 52.168 143.529 53.432 141.801 54.088L141.113 53.016C143.337 52.248 144.745 50.296 144.745 48.12V46.648H146.057V48.072C146.057 50.104 147.433 51.896 149.545 52.632L148.841 53.656ZM148.217 54.76C151.161 54.76 152.985 55.736 152.985 57.464C152.985 59.176 151.161 60.168 148.217 60.168C145.273 60.168 143.433 59.176 143.433 57.464C143.433 55.736 145.273 54.76 148.217 54.76ZM148.217 59.128C150.409 59.128 151.689 58.504 151.689 57.464C151.689 56.376 150.409 55.784 148.217 55.784C146.025 55.784 144.745 56.376 144.745 57.464C144.745 58.504 146.025 59.128 148.217 59.128Z" fill="#242424"/>
<path d="M212.024 46.84C214.248 46.84 215.8 48.264 215.8 50.312C215.752 51.992 214.568 53.384 213.384 54.616L210.904 57.112C211.336 57 211.72 56.984 212.088 56.984H215.928V59H207.592V57.72L211.608 53.768C212.824 52.552 213.576 51.592 213.576 50.36C213.576 49.256 212.92 48.68 211.88 48.68C210.984 48.68 210.344 49.288 210.088 49.992C210.008 50.232 209.976 50.472 209.96 50.792L207.864 50.44C208.248 47.992 209.832 46.84 212.024 46.84ZM228.955 60.36H226.843V45.64H228.955V60.36ZM221.403 52.52C219.179 52.52 217.531 51.224 217.531 49.384C217.531 47.528 219.179 46.232 221.403 46.232C223.627 46.232 225.259 47.528 225.259 49.384C225.259 51.224 223.627 52.52 221.403 52.52ZM221.403 47.944C220.315 47.944 219.563 48.424 219.563 49.384C219.563 50.28 220.315 50.792 221.403 50.792C222.491 50.792 223.243 50.28 223.243 49.384C223.243 48.424 222.491 47.944 221.403 47.944ZM226.139 54.424C224.923 54.664 223.739 54.808 222.523 54.92V59.928H220.411V55.048C219.131 55.096 217.947 55.112 216.907 55.112L216.667 53.384C219.227 53.384 222.891 53.352 226.011 52.888L226.139 54.424Z" fill="#242424"/>
<rect x="234" y="48" width="1" height="11" fill="#DFDFDF"/>
<path d="M240.136 50.424C240.44 48.296 241.992 47.08 243.992 47.08C246.024 47.08 247.464 48.328 247.464 50.12C247.464 51.656 246.68 52.424 245.4 52.856C246.936 53.24 247.736 54.216 247.736 55.688C247.736 57.832 245.96 59.208 243.768 59.208C241.24 59.208 240.328 57.848 239.768 56.12L241.08 55.576C241.112 55.752 241.192 55.992 241.32 56.296C241.816 57.32 242.536 57.944 243.752 57.944C245.432 57.944 246.248 56.76 246.248 55.72C246.248 54.456 245.72 53.528 243.208 53.528V52.472C245.272 52.424 246.008 51.576 246.008 50.36C246.008 49.016 245.144 48.36 243.912 48.36C242.568 48.36 241.592 49.352 241.592 50.664L240.136 50.424ZM257.035 53.16C257.035 57.32 255.147 59.224 252.731 59.224C250.299 59.224 248.427 57.32 248.427 53.16C248.427 48.984 250.299 47.08 252.731 47.08C255.147 47.08 257.035 48.984 257.035 53.16ZM255.563 53.16C255.563 49.496 254.219 48.28 252.731 48.28C251.243 48.28 249.915 49.496 249.915 53.16C249.915 56.808 251.243 58.04 252.731 58.04C254.219 58.04 255.563 56.808 255.563 53.16ZM269.903 60.184H268.639V52.664H266.606V59.464H265.374V46.152H266.606V51.592H268.639V45.832H269.903V60.184ZM259.518 55.56C261.422 55.56 262.814 55.464 264.366 55.128L264.478 56.216C262.782 56.6 261.294 56.648 259.166 56.648H258.222V47.576H263.566V48.648H259.518V55.56ZM286.631 60.216H285.319V54.648H281.735C281.143 56.12 280.055 56.952 278.647 56.952C276.551 56.952 275.063 55 275.063 51.944C275.063 48.888 276.551 46.936 278.647 46.936C279.991 46.936 281.015 47.704 281.639 49.048H285.319V45.832H286.631V60.216ZM278.647 55.784C279.991 55.784 280.983 54.28 280.983 51.944C280.983 49.624 279.991 48.12 278.647 48.12C277.271 48.12 276.311 49.624 276.311 51.944C276.311 54.28 277.271 55.784 278.647 55.784ZM285.319 50.12H282.007C282.135 50.68 282.215 51.288 282.215 51.944C282.215 52.6 282.167 53.144 282.055 53.576H285.319V50.12ZM296.302 49.96V48.888H299.422V45.848H300.75V54.328H299.422V49.96H296.302ZM296.638 53.656C295.038 53.064 293.854 51.928 293.23 50.44C292.606 52.168 291.326 53.432 289.598 54.088L288.91 53.016C291.134 52.248 292.542 50.296 292.542 48.12V46.648H293.854V48.072C293.854 50.104 295.23 51.896 297.342 52.632L296.638 53.656ZM296.014 54.76C298.958 54.76 300.782 55.736 300.782 57.464C300.782 59.176 298.958 60.168 296.014 60.168C293.07 60.168 291.23 59.176 291.23 57.464C291.23 55.736 293.07 54.76 296.014 54.76ZM296.014 59.128C298.206 59.128 299.486 58.504 299.486 57.464C299.486 56.376 298.206 55.784 296.014 55.784C293.822 55.784 292.542 56.376 292.542 57.464C292.542 58.504 293.822 59.128 296.014 59.128Z" fill="#242424"/>
<path d="M34 95C34 90.5817 37.5817 87 42 87H155V103H42C37.5817 103 34 99.4183 34 95Z" fill="#F7F7F7"/>
<path d="M153 89C153 87.8954 153.895 87 155 87V103C153.895 103 153 102.105 153 101V89Z" fill="#84B4FF"/>
<path d="M149.312 100H144.56V99.112H146.516V92.776C146.516 92.668 146.516 92.56 146.528 92.476L144.932 93.904L144.344 93.196L146.708 91.156H147.584V99.112H149.312V100Z" fill="#6F6F6F"/>
<path d="M207 87H320C324.418 87 328 90.5817 328 95C328 99.4183 324.418 103 320 103H207V87Z" fill="#F7F7F7"/>
<path d="M207 87C208.657 87 210 88.3431 210 90V100C210 101.657 208.657 103 207 103V87Z" fill="#FF898A"/>
<path d="M220.312 100H215.56V99.112H217.516V92.776C217.516 92.668 217.516 92.56 217.528 92.476L215.932 93.904L215.344 93.196L217.708 91.156H218.584V99.112H220.312V100ZM221.744 99.04V100.168H220.652V99.04H221.744ZM228.526 91.912L224.554 100H223.342L226.93 92.812L227.338 92.14H222.742V91.204H228.526V91.912Z" fill="#6F6F6F"/>
<path d="M34 125C34 120.582 37.5817 117 42 117H155V133H42C37.5817 133 34 129.418 34 125Z" fill="#F7F7F7"/>
<path d="M136 125C136 120.582 139.582 117 144 117H155V133H144C139.582 133 136 129.418 136 125Z" fill="#84B4FF"/>
<path d="M116.312 130H111.56V129.112H113.516V122.776C113.516 122.668 113.516 122.56 113.528 122.476L111.932 123.904L111.344 123.196L113.708 121.156H114.584V129.112H116.312V130ZM122.46 130H117.708V129.112H119.664V122.776C119.664 122.668 119.664 122.56 119.676 122.476L118.08 123.904L117.492 123.196L119.856 121.156H120.732V129.112H122.46V130ZM123.893 129.04V130.168H122.801V129.04H123.893ZM130.375 130H125.623V129.112H127.579V122.776C127.579 122.668 127.579 122.56 127.59 122.476L125.995 123.904L125.407 123.196L127.771 121.156H128.647V129.112H130.375V130Z" fill="#6F6F6F"/>
<path d="M207 117H320C324.418 117 328 120.582 328 125C328 129.418 324.418 133 320 133H207V117Z" fill="#F7F7F7"/>
<path d="M207 117H236C240.418 117 244 120.582 244 125C244 129.418 240.418 133 236 133H207V117Z" fill="#FF898A"/>
<path d="M254.54 130H248.636V129.232L251.672 126.316C252.596 125.332 253.268 124.576 253.268 123.544C253.232 122.488 252.56 121.996 251.648 121.996C250.64 121.996 249.896 122.716 249.896 123.724L248.816 123.544C249.044 121.924 250.208 121.048 251.708 121.048C253.208 121.048 254.372 121.96 254.372 123.52C254.372 124.828 253.532 125.74 252.536 126.736L250.076 129.172C250.412 129.076 250.772 129.028 251.072 129.028H254.54V130ZM260.46 130H255.708V129.112H257.664V122.776C257.664 122.668 257.664 122.56 257.676 122.476L256.08 123.904L255.492 123.196L257.856 121.156H258.732V129.112H260.46V130ZM261.893 129.04V130.168H260.801V129.04H261.893ZM264.355 124.48C264.763 124.372 265.183 124.324 265.615 124.324C267.475 124.324 268.471 125.476 268.471 127.012C268.471 128.884 267.067 130.108 265.279 130.108C264.223 130.108 263.335 129.676 262.795 129.16L263.383 128.356C263.911 128.8 264.607 129.124 265.327 129.124C266.539 129.124 267.415 128.368 267.415 127.072C267.415 125.92 266.671 125.248 265.411 125.248C264.943 125.248 264.487 125.356 263.971 125.536L263.263 125.332L263.983 121.168H268.195V122.176H264.751L264.355 124.48Z" fill="#6F6F6F"/>
<path d="M34 155C34 150.582 37.5817 147 42 147H155V163H42C37.5817 163 34 159.418 34 155Z" fill="#F7F7F7"/>
<path d="M130 155C130 150.582 133.582 147 138 147H155V163H138C133.582 163 130 159.418 130 155Z" fill="#84B4FF"/>
<path d="M110.312 160H105.56V159.112H107.516V152.776C107.516 152.668 107.516 152.56 107.528 152.476L105.932 153.904L105.344 153.196L107.708 151.156H108.584V159.112H110.312V160ZM117.108 157.66H115.776V160H114.804V157.66H110.412V156.844L114.744 151.108H115.776V156.796H117.108V157.66ZM114.804 153.124C114.804 152.92 114.816 152.632 114.852 152.38L111.612 156.796H114.804V153.124ZM117.893 159.04V160.168H116.801V159.04H117.893ZM120.955 154.48C120.751 154.768 120.619 154.96 120.535 155.056C120.967 154.768 121.459 154.6 122.047 154.6C123.487 154.6 124.687 155.56 124.687 157.252C124.687 158.884 123.439 160.156 121.639 160.156C119.851 160.156 118.687 158.956 118.687 157.132C118.687 156.352 119.011 155.464 119.779 154.456L122.227 151.156H123.607L120.955 154.48ZM121.615 159.232C122.779 159.232 123.583 158.428 123.583 157.336C123.583 156.172 122.779 155.452 121.687 155.452C120.511 155.452 119.755 156.316 119.755 157.312C119.755 158.464 120.415 159.232 121.615 159.232Z" fill="#6F6F6F"/>
<path d="M207 147H320C324.418 147 328 150.582 328 155C328 159.418 324.418 163 320 163H207V147Z" fill="#F7F7F7"/>
<path d="M207 147H229C233.418 147 237 150.582 237 155C237 159.418 233.418 163 229 163H207V147Z" fill="#FF898A"/>
<path d="M247.312 160H242.56V159.112H244.516V152.776C244.516 152.668 244.516 152.56 244.528 152.476L242.932 153.904L242.344 153.196L244.708 151.156H245.584V159.112H247.312V160ZM253.76 151.912L249.788 160H248.576L252.164 152.812L252.572 152.14H247.976V151.204H253.76V151.912ZM254.893 159.04V160.168H253.801V159.04H254.893ZM257.955 154.48C257.751 154.768 257.619 154.96 257.535 155.056C257.967 154.768 258.459 154.6 259.047 154.6C260.487 154.6 261.687 155.56 261.687 157.252C261.687 158.884 260.439 160.156 258.639 160.156C256.851 160.156 255.687 158.956 255.687 157.132C255.687 156.352 256.011 155.464 256.779 154.456L259.227 151.156H260.607L257.955 154.48ZM258.615 159.232C259.779 159.232 260.583 158.428 260.583 157.336C260.583 156.172 259.779 155.452 258.687 155.452C257.511 155.452 256.755 156.316 256.755 157.312C256.755 158.464 257.415 159.232 258.615 159.232Z" fill="#6F6F6F"/>
<path d="M34 185C34 180.582 37.5817 177 42 177H155V193H42C37.5817 193 34 189.418 34 185Z" fill="#F7F7F7"/>
<path d="M135 185C135 180.582 138.582 177 143 177H155V193H143C138.582 193 135 189.418 135 185Z" fill="#84B4FF"/>
<path d="M115.312 190H110.56V189.112H112.516V182.776C112.516 182.668 112.516 182.56 112.528 182.476L110.932 183.904L110.344 183.196L112.708 181.156H113.584V189.112H115.312V190ZM121.46 190H116.708V189.112H118.664V182.776C118.664 182.668 118.664 182.56 118.676 182.476L117.08 183.904L116.492 183.196L118.856 181.156H119.732V189.112H121.46V190ZM122.893 189.04V190.168H121.801V189.04H122.893ZM127.923 185.416C129.039 185.716 129.663 186.484 129.663 187.636C129.663 189.208 128.415 190.204 126.639 190.204C124.839 190.204 123.591 189.208 123.591 187.636C123.591 186.484 124.227 185.716 125.331 185.416C124.419 185.068 123.915 184.36 123.915 183.352C123.915 182.056 124.971 180.988 126.639 180.988C128.247 180.988 129.363 182.056 129.363 183.352C129.363 184.372 128.883 185.068 127.923 185.416ZM126.639 181.864C125.535 181.864 125.007 182.548 125.007 183.388C125.007 184.192 125.427 184.996 126.639 184.996C127.827 184.996 128.247 184.192 128.247 183.388C128.247 182.548 127.719 181.864 126.639 181.864ZM126.639 189.304C127.839 189.304 128.499 188.632 128.499 187.624C128.499 186.388 127.635 185.872 126.639 185.872C125.631 185.872 124.755 186.388 124.755 187.624C124.755 188.632 125.439 189.304 126.639 189.304Z" fill="#6F6F6F"/>
<path d="M207 177H320C324.418 177 328 180.582 328 185C328 189.418 324.418 193 320 193H207V177Z" fill="#F7F7F7"/>
<path d="M207 177H216C220.418 177 224 180.582 224 185C224 189.418 220.418 193 216 193H207V177Z" fill="#FF898A"/>
<path d="M231.38 186.508C231.632 186.172 231.776 185.944 231.86 185.836C231.392 186.208 230.828 186.4 230.168 186.4C228.788 186.4 227.636 185.488 227.636 183.82C227.636 182.248 228.872 180.988 230.624 180.988C232.352 180.988 233.492 182.188 233.492 183.904C233.492 184.948 233.108 185.752 232.436 186.676L230.024 190H228.644L231.38 186.508ZM228.752 183.736C228.752 184.9 229.424 185.536 230.528 185.536C231.728 185.536 232.424 184.696 232.424 183.772C232.424 182.62 231.644 181.936 230.612 181.936C229.496 181.936 228.752 182.668 228.752 183.736ZM234.744 189.04V190.168H233.652V189.04H234.744ZM241.526 181.912L237.554 190H236.342L239.93 182.812L240.338 182.14H235.742V181.204H241.526V181.912Z" fill="#6F6F6F"/>
<path d="M34 215C34 210.582 37.5817 207 42 207H155V223H42C37.5817 223 34 219.418 34 215Z" fill="#F7F7F7"/>
<path d="M147 215C147 210.582 150.582 207 155 207V223C150.582 223 147 219.418 147 215Z" fill="#84B4FF"/>
<path d="M133.96 217.66H132.628V220H131.656V217.66H127.264V216.844L131.596 211.108H132.628V216.796H133.96V217.66ZM131.656 213.124C131.656 212.92 131.668 212.632 131.704 212.38L128.464 216.796H131.656V213.124ZM134.744 219.04V220.168H133.652V219.04H134.744ZM139.774 215.416C140.89 215.716 141.514 216.484 141.514 217.636C141.514 219.208 140.266 220.204 138.49 220.204C136.69 220.204 135.442 219.208 135.442 217.636C135.442 216.484 136.078 215.716 137.182 215.416C136.27 215.068 135.766 214.36 135.766 213.352C135.766 212.056 136.822 210.988 138.49 210.988C140.098 210.988 141.214 212.056 141.214 213.352C141.214 214.372 140.734 215.068 139.774 215.416ZM138.49 211.864C137.386 211.864 136.858 212.548 136.858 213.388C136.858 214.192 137.278 214.996 138.49 214.996C139.678 214.996 140.098 214.192 140.098 213.388C140.098 212.548 139.57 211.864 138.49 211.864ZM138.49 219.304C139.69 219.304 140.35 218.632 140.35 217.624C140.35 216.388 139.486 215.872 138.49 215.872C137.482 215.872 136.606 216.388 136.606 217.624C136.606 218.632 137.29 219.304 138.49 219.304Z" fill="#6F6F6F"/>
<path d="M207 207H320C324.418 207 328 210.582 328 215C328 219.418 324.418 223 320 223H207V207Z" fill="#F7F7F7"/>
<path d="M207 207C210.314 207 213 209.686 213 213V217C213 220.314 210.314 223 207 223V207Z" fill="#FF898A"/>
<path d="M217.852 213.568C218.08 211.972 219.244 211.06 220.744 211.06C222.268 211.06 223.348 211.996 223.348 213.34C223.348 214.492 222.76 215.068 221.8 215.392C222.952 215.68 223.552 216.412 223.552 217.516C223.552 219.124 222.22 220.156 220.576 220.156C218.68 220.156 217.996 219.136 217.576 217.84L218.56 217.432C218.584 217.564 218.644 217.744 218.74 217.972C219.112 218.74 219.652 219.208 220.564 219.208C221.824 219.208 222.436 218.32 222.436 217.54C222.436 216.592 222.04 215.896 220.156 215.896V215.104C221.704 215.068 222.256 214.432 222.256 213.52C222.256 212.512 221.608 212.02 220.684 212.02C219.676 212.02 218.944 212.764 218.944 213.748L217.852 213.568ZM224.744 219.04V220.168H223.652V219.04H224.744ZM227.206 214.48C227.614 214.372 228.034 214.324 228.466 214.324C230.326 214.324 231.322 215.476 231.322 217.012C231.322 218.884 229.918 220.108 228.13 220.108C227.074 220.108 226.186 219.676 225.646 219.16L226.234 218.356C226.762 218.8 227.458 219.124 228.178 219.124C229.39 219.124 230.266 218.368 230.266 217.072C230.266 215.92 229.522 215.248 228.262 215.248C227.794 215.248 227.338 215.356 226.822 215.536L226.114 215.332L226.834 211.168H231.046V212.176H227.602L227.206 214.48Z" fill="#6F6F6F"/>
<path d="M169.612 243.56C169.374 243.896 169.22 244.12 169.122 244.232C169.626 243.896 170.2 243.7 170.886 243.7C172.566 243.7 173.966 244.82 173.966 246.794C173.966 248.698 172.51 250.182 170.41 250.182C168.324 250.182 166.966 248.782 166.966 246.654C166.966 245.744 167.344 244.708 168.24 243.532L171.096 239.682H172.706L169.612 243.56ZM170.382 249.104C171.74 249.104 172.678 248.166 172.678 246.892C172.678 245.534 171.74 244.694 170.466 244.694C169.094 244.694 168.212 245.702 168.212 246.864C168.212 248.208 168.982 249.104 170.382 249.104ZM181.944 244.89C181.944 248.53 180.292 250.196 178.178 250.196C176.05 250.196 174.412 248.53 174.412 244.89C174.412 241.236 176.05 239.57 178.178 239.57C180.292 239.57 181.944 241.236 181.944 244.89ZM180.656 244.89C180.656 241.684 179.48 240.62 178.178 240.62C176.876 240.62 175.714 241.684 175.714 244.89C175.714 248.082 176.876 249.16 178.178 249.16C179.48 249.16 180.656 248.082 180.656 244.89ZM193.128 251.036H192.022V244.456H190.244V250.406H189.166V238.758H190.244V243.518H192.022V238.478H193.128V251.036ZM184.042 246.99C185.708 246.99 186.926 246.906 188.284 246.612L188.382 247.564C186.898 247.9 185.596 247.942 183.734 247.942H182.908V240.004H187.584V240.942H184.042V246.99ZM199.26 245.982C198.014 245.982 197.37 244.652 196.474 244.652C196.026 244.652 195.648 244.932 195.27 245.604L194.556 245.1C195.13 244.092 195.83 243.7 196.516 243.7C197.748 243.7 198.392 245.016 199.288 245.016C199.736 245.016 200.128 244.736 200.478 244.064L201.206 244.582C200.632 245.59 199.932 245.982 199.26 245.982Z" fill="#6F6F6F"/>
<path d="M34 245C34 240.582 37.5817 237 42 237H155V253H42C37.5817 253 34 249.418 34 245Z" fill="#F7F7F7"/>
<path d="M153 239C153 237.895 153.895 237 155 237V253C153.895 253 153 252.105 153 251V239Z" fill="#84B4FF"/>
<path d="M139.312 250H134.56V249.112H136.516V242.776C136.516 242.668 136.516 242.56 136.528 242.476L134.932 243.904L134.344 243.196L136.708 241.156H137.584V249.112H139.312V250ZM140.744 249.04V250.168H139.652V249.04H140.744ZM141.766 243.568C141.994 241.972 143.158 241.06 144.658 241.06C146.182 241.06 147.262 241.996 147.262 243.34C147.262 244.492 146.674 245.068 145.714 245.392C146.866 245.68 147.466 246.412 147.466 247.516C147.466 249.124 146.134 250.156 144.49 250.156C142.594 250.156 141.91 249.136 141.49 247.84L142.474 247.432C142.498 247.564 142.558 247.744 142.654 247.972C143.026 248.74 143.566 249.208 144.478 249.208C145.738 249.208 146.35 248.32 146.35 247.54C146.35 246.592 145.954 245.896 144.07 245.896V245.104C145.618 245.068 146.17 244.432 146.17 243.52C146.17 242.512 145.522 242.02 144.598 242.02C143.59 242.02 142.858 242.764 142.858 243.748L141.766 243.568Z" fill="#6F6F6F"/>
<path d="M173.685 100H168.141V98.964H170.423V91.572C170.423 91.446 170.423 91.32 170.437 91.222L168.575 92.888L167.889 92.062L170.647 89.682H171.669V98.964H173.685V100ZM182.027 94.89C182.027 98.53 180.375 100.196 178.261 100.196C176.133 100.196 174.495 98.53 174.495 94.89C174.495 91.236 176.133 89.57 178.261 89.57C180.375 89.57 182.027 91.236 182.027 94.89ZM180.739 94.89C180.739 91.684 179.563 90.62 178.261 90.62C176.959 90.62 175.797 91.684 175.797 94.89C175.797 98.082 176.959 99.16 178.261 99.16C179.563 99.16 180.739 98.082 180.739 94.89ZM193.21 101.036H192.104V94.456H190.326V100.406H189.248V88.758H190.326V93.518H192.104V88.478H193.21V101.036ZM184.124 96.99C185.79 96.99 187.008 96.906 188.366 96.612L188.464 97.564C186.98 97.9 185.678 97.942 183.816 97.942H182.99V90.004H187.666V90.942H184.124V96.99Z" fill="#6F6F6F"/>
<path d="M173.951 130H167.063V129.104L170.605 125.702C171.683 124.554 172.467 123.672 172.467 122.468C172.425 121.236 171.641 120.662 170.577 120.662C169.401 120.662 168.533 121.502 168.533 122.678L167.273 122.468C167.539 120.578 168.897 119.556 170.647 119.556C172.397 119.556 173.755 120.62 173.755 122.44C173.755 123.966 172.775 125.03 171.613 126.192L168.743 129.034C169.135 128.922 169.555 128.866 169.905 128.866H173.951V130ZM182.027 124.89C182.027 128.53 180.375 130.196 178.261 130.196C176.133 130.196 174.495 128.53 174.495 124.89C174.495 121.236 176.133 119.57 178.261 119.57C180.375 119.57 182.027 121.236 182.027 124.89ZM180.739 124.89C180.739 121.684 179.563 120.62 178.261 120.62C176.959 120.62 175.797 121.684 175.797 124.89C175.797 128.082 176.959 129.16 178.261 129.16C179.563 129.16 180.739 128.082 180.739 124.89ZM193.21 131.036H192.104V124.456H190.326V130.406H189.248V118.758H190.326V123.518H192.104V118.478H193.21V131.036ZM184.124 126.99C185.79 126.99 187.008 126.906 188.366 126.612L188.464 127.564C186.98 127.9 185.678 127.942 183.816 127.942H182.99V120.004H187.666V120.942H184.124V126.99Z" fill="#6F6F6F"/>
<path d="M167.315 152.496C167.581 150.634 168.939 149.57 170.689 149.57C172.467 149.57 173.727 150.662 173.727 152.23C173.727 153.574 173.041 154.246 171.921 154.624C173.265 154.96 173.965 155.814 173.965 157.102C173.965 158.978 172.411 160.182 170.493 160.182C168.281 160.182 167.483 158.992 166.993 157.48L168.141 157.004C168.169 157.158 168.239 157.368 168.351 157.634C168.785 158.53 169.415 159.076 170.479 159.076C171.949 159.076 172.663 158.04 172.663 157.13C172.663 156.024 172.201 155.212 170.003 155.212V154.288C171.809 154.246 172.453 153.504 172.453 152.44C172.453 151.264 171.697 150.69 170.619 150.69C169.443 150.69 168.589 151.558 168.589 152.706L167.315 152.496ZM182.027 154.89C182.027 158.53 180.375 160.196 178.261 160.196C176.133 160.196 174.495 158.53 174.495 154.89C174.495 151.236 176.133 149.57 178.261 149.57C180.375 149.57 182.027 151.236 182.027 154.89ZM180.739 154.89C180.739 151.684 179.563 150.62 178.261 150.62C176.959 150.62 175.797 151.684 175.797 154.89C175.797 158.082 176.959 159.16 178.261 159.16C179.563 159.16 180.739 158.082 180.739 154.89ZM193.21 161.036H192.104V154.456H190.326V160.406H189.248V148.758H190.326V153.518H192.104V148.478H193.21V161.036ZM184.124 156.99C185.79 156.99 187.008 156.906 188.366 156.612L188.464 157.564C186.98 157.9 185.678 157.942 183.816 157.942H182.99V150.004H187.666V150.942H184.124V156.99Z" fill="#6F6F6F"/>
<path d="M174.441 187.27H172.887V190H171.753V187.27H166.629V186.318L171.683 179.626H172.887V186.262H174.441V187.27ZM171.753 181.978C171.753 181.74 171.767 181.404 171.809 181.11L168.029 186.262H171.753V181.978ZM182.027 184.89C182.027 188.53 180.375 190.196 178.261 190.196C176.133 190.196 174.495 188.53 174.495 184.89C174.495 181.236 176.133 179.57 178.261 179.57C180.375 179.57 182.027 181.236 182.027 184.89ZM180.739 184.89C180.739 181.684 179.563 180.62 178.261 180.62C176.959 180.62 175.797 181.684 175.797 184.89C175.797 188.082 176.959 189.16 178.261 189.16C179.563 189.16 180.739 188.082 180.739 184.89ZM193.21 191.036H192.104V184.456H190.326V190.406H189.248V178.758H190.326V183.518H192.104V178.478H193.21V191.036ZM184.124 186.99C185.79 186.99 187.008 186.906 188.366 186.612L188.464 187.564C186.98 187.9 185.678 187.942 183.816 187.942H182.99V180.004H187.666V180.942H184.124V186.99Z" fill="#6F6F6F"/>
<path d="M168.995 213.56C169.471 213.434 169.961 213.378 170.465 213.378C172.635 213.378 173.797 214.722 173.797 216.514C173.797 218.698 172.159 220.126 170.073 220.126C168.841 220.126 167.805 219.622 167.175 219.02L167.861 218.082C168.477 218.6 169.289 218.978 170.129 218.978C171.543 218.978 172.565 218.096 172.565 216.584C172.565 215.24 171.697 214.456 170.227 214.456C169.681 214.456 169.149 214.582 168.547 214.792L167.721 214.554L168.561 209.696H173.475V210.872H169.457L168.995 213.56ZM182.027 214.89C182.027 218.53 180.375 220.196 178.261 220.196C176.133 220.196 174.495 218.53 174.495 214.89C174.495 211.236 176.133 209.57 178.261 209.57C180.375 209.57 182.027 211.236 182.027 214.89ZM180.739 214.89C180.739 211.684 179.563 210.62 178.261 210.62C176.959 210.62 175.797 211.684 175.797 214.89C175.797 218.082 176.959 219.16 178.261 219.16C179.563 219.16 180.739 218.082 180.739 214.89ZM193.21 221.036H192.104V214.456H190.326V220.406H189.248V208.758H190.326V213.518H192.104V208.478H193.21V221.036ZM184.124 216.99C185.79 216.99 187.008 216.906 188.366 216.612L188.464 217.564C186.98 217.9 185.678 217.942 183.816 217.942H182.99V210.004H187.666V210.942H184.124V216.99Z" fill="#6F6F6F"/>
<path d="M207 237H320C324.418 237 328 240.582 328 245C328 249.418 324.418 253 320 253H207V237Z" fill="#F7F7F7"/>
<path d="M207 237C207.552 237 208 237.448 208 238V252C208 252.552 207.552 253 207 253V237Z" fill="#FF898A"/>
<path d="M219.828 245.62C219.828 248.74 218.412 250.168 216.6 250.168C214.776 250.168 213.372 248.74 213.372 245.62C213.372 242.488 214.776 241.06 216.6 241.06C218.412 241.06 219.828 242.488 219.828 245.62ZM218.724 245.62C218.724 242.872 217.716 241.96 216.6 241.96C215.484 241.96 214.488 242.872 214.488 245.62C214.488 248.356 215.484 249.28 216.6 249.28C217.716 249.28 218.724 248.356 218.724 245.62ZM220.744 249.04V250.168H219.652V249.04H220.744ZM225.774 245.416C226.89 245.716 227.514 246.484 227.514 247.636C227.514 249.208 226.266 250.204 224.49 250.204C222.69 250.204 221.442 249.208 221.442 247.636C221.442 246.484 222.078 245.716 223.182 245.416C222.27 245.068 221.766 244.36 221.766 243.352C221.766 242.056 222.822 240.988 224.49 240.988C226.098 240.988 227.214 242.056 227.214 243.352C227.214 244.372 226.734 245.068 225.774 245.416ZM224.49 241.864C223.386 241.864 222.858 242.548 222.858 243.388C222.858 244.192 223.278 244.996 224.49 244.996C225.678 244.996 226.098 244.192 226.098 243.388C226.098 242.548 225.57 241.864 224.49 241.864ZM224.49 249.304C225.69 249.304 226.35 248.632 226.35 247.624C226.35 246.388 225.486 245.872 224.49 245.872C223.482 245.872 222.606 246.388 222.606 247.624C222.606 248.632 223.29 249.304 224.49 249.304Z" fill="#6F6F6F"/>
<path d="M127.91 276.412V279.208H126.926V273.124H127.91V275.596H129.506V276.412H127.91ZM125.954 277.912C124.118 278.284 122.558 278.392 120.926 278.392H120.086V273.664H121.058V277.564C122.606 277.552 124.094 277.444 125.834 277.108L125.954 277.912ZM127.91 279.796V283.732H121.13V279.796H127.91ZM126.95 282.94V280.588H122.09V282.94H126.95ZM135.129 276.22V275.416H137.469V273.136H138.465V279.496H137.469V276.22H135.129ZM135.381 278.992C134.181 278.548 133.293 277.696 132.825 276.58C132.357 277.876 131.397 278.824 130.101 279.316L129.585 278.512C131.253 277.936 132.309 276.472 132.309 274.84V273.736H133.293V274.804C133.293 276.328 134.325 277.672 135.909 278.224L135.381 278.992ZM134.913 279.82C137.121 279.82 138.489 280.552 138.489 281.848C138.489 283.132 137.121 283.876 134.913 283.876C132.705 283.876 131.325 283.132 131.325 281.848C131.325 280.552 132.705 279.82 134.913 279.82ZM134.913 283.096C136.557 283.096 137.517 282.628 137.517 281.848C137.517 281.032 136.557 280.588 134.913 280.588C133.269 280.588 132.309 281.032 132.309 281.848C132.309 282.628 133.269 283.096 134.913 283.096Z" fill="#6F6F6F"/>
<rect x="144" y="273" width="12" height="12" rx="6" fill="#84B4FF"/>
<rect x="207" y="273" width="12" height="12" rx="6" fill="#FF898A"/>
<path d="M232.504 282.912H231.52V278.736H228.832C228.388 279.84 227.572 280.464 226.516 280.464C224.944 280.464 223.828 279 223.828 276.708C223.828 274.416 224.944 272.952 226.516 272.952C227.524 272.952 228.292 273.528 228.76 274.536H231.52V272.124H232.504V282.912ZM226.516 279.588C227.524 279.588 228.268 278.46 228.268 276.708C228.268 274.968 227.524 273.84 226.516 273.84C225.484 273.84 224.764 274.968 224.764 276.708C224.764 278.46 225.484 279.588 226.516 279.588ZM231.52 275.34H229.036C229.132 275.76 229.192 276.216 229.192 276.708C229.192 277.2 229.156 277.608 229.072 277.932H231.52V275.34ZM239.207 275.22V274.416H241.547V272.136H242.543V278.496H241.547V275.22H239.207ZM239.459 277.992C238.259 277.548 237.371 276.696 236.903 275.58C236.435 276.876 235.475 277.824 234.179 278.316L233.663 277.512C235.331 276.936 236.387 275.472 236.387 273.84V272.736H237.371V273.804C237.371 275.328 238.403 276.672 239.987 277.224L239.459 277.992ZM238.991 278.82C241.199 278.82 242.567 279.552 242.567 280.848C242.567 282.132 241.199 282.876 238.991 282.876C236.783 282.876 235.403 282.132 235.403 280.848C235.403 279.552 236.783 278.82 238.991 278.82ZM238.991 282.096C240.635 282.096 241.595 281.628 241.595 280.848C241.595 280.032 240.635 279.588 238.991 279.588C237.347 279.588 236.387 280.032 236.387 280.848C236.387 281.628 237.347 282.096 238.991 282.096Z" fill="#6F6F6F"/>
<path d="M287.868 284.716C286.764 282.928 286.104 280.984 286.104 278.62C286.104 276.268 286.764 274.324 287.868 272.536L288.552 272.848C287.496 274.588 287.016 276.52 287.016 278.62C287.016 280.72 287.496 282.652 288.552 284.392L287.868 284.716ZM298.639 277.132H297.043V280.912H296.059V273.124H297.043V276.316H298.639V277.132ZM295.027 278.632C293.551 278.92 292.291 279.004 290.023 279.004H289.183V274.06H293.947V274.852H290.167V278.2C292.291 278.2 293.515 278.128 294.919 277.84L295.027 278.632ZM297.523 282.844V283.648H290.347V280.132H291.331V282.844H297.523ZM307.562 283.9H306.578V273.136H307.562V283.9ZM302.258 278.056C300.662 278.056 299.51 277.156 299.51 275.848C299.51 274.54 300.662 273.628 302.258 273.628C303.854 273.628 304.994 274.54 304.994 275.848C304.994 277.156 303.854 278.056 302.258 278.056ZM302.258 274.444C301.202 274.444 300.458 275.02 300.458 275.848C300.458 276.676 301.202 277.252 302.258 277.252C303.314 277.252 304.046 276.712 304.046 275.848C304.046 274.984 303.314 274.444 302.258 274.444ZM305.882 279.316C304.862 279.496 303.842 279.616 302.798 279.676V283.552H301.814V279.736C300.746 279.784 299.75 279.796 298.838 279.796L298.706 278.968C300.722 278.968 303.434 278.932 305.798 278.584L305.882 279.316ZM310.101 276.076V277.204H309.009V276.076H310.101ZM310.101 281.188V282.316H309.009V281.188H310.101ZM314.124 279.364C312.912 279.364 312.12 278.464 312.12 276.676C312.12 274.888 312.912 274.024 314.124 274.024C315.372 274.024 316.152 274.888 316.152 276.676C316.152 278.464 315.372 279.364 314.124 279.364ZM320.088 274.024L315.24 283.144H314.28L319.14 274.024H320.088ZM314.124 278.62C314.796 278.62 315.252 278.068 315.252 276.676C315.252 275.296 314.796 274.768 314.124 274.768C313.452 274.768 313.008 275.32 313.008 276.676C313.008 278.056 313.464 278.62 314.124 278.62ZM320.22 283.12C319.008 283.12 318.192 282.232 318.192 280.444C318.192 278.656 319.008 277.792 320.22 277.792C321.432 277.792 322.236 278.656 322.236 280.444C322.236 282.232 321.432 283.12 320.22 283.12ZM320.22 282.376C320.892 282.376 321.336 281.836 321.336 280.444C321.336 279.064 320.892 278.524 320.22 278.524C319.548 278.524 319.092 279.064 319.092 280.444C319.092 281.824 319.548 282.376 320.22 282.376ZM322.231 284.32C323.287 282.58 323.767 280.648 323.767 278.548C323.767 276.448 323.287 274.516 322.231 272.776L322.903 272.464C324.019 274.252 324.679 276.196 324.679 278.548C324.679 280.912 324.019 282.856 322.903 284.644L322.231 284.32Z" fill="#A5A5A5"/>
</g>
<defs>
<filter id="filter0_d_573_27907" x="0" y="0" width="367" height="334" filterUnits="userSpaceOnUse" color-interpolation-filters="sRGB">
<feFlood flood-opacity="0" result="BackgroundImageFix"/>
<feColorMatrix in="SourceAlpha" type="matrix" values="0 0 0 0 0 0 0 0 0 0 0 0 0 0 0 0 0 0 127 0" result="hardAlpha"/>
<feOffset dx="2" dy="2"/>
<feGaussianBlur stdDeviation="10"/>
<feComposite in2="hardAlpha" operator="out"/>
<feColorMatrix type="matrix" values="0 0 0 0 0 0 0 0 0 0 0 0 0 0 0 0 0 0 0.06 0"/>
<feBlend mode="normal" in2="BackgroundImageFix" result="effect1_dropShadow_573_27907"/>
<feBlend mode="normal" in="SourceGraphic" in2="effect1_dropShadow_573_27907" result="shape"/>
</filter>
</defs>
</svg>
